# xmcd CD database file
#
# Track frame offsets:
#	150
#	13100
#	25229
#	37395
#	52824
#	65614
#	79244
#	94484
#	104902
#	116385
#	130850
#	144039
#
# Disc length: 2087 seconds
#
# Revision: 0
# Processed by: cddbd v1.5.1PL0 Copyright (c) Steve Scherf et al.
# Submitted via: CDex 1.50
#
DISCID=a708250c
DTITLE=Slim Dusty - Songs in the saddle
DYEAR=1963
DGENRE=Country
TTITLE0=Man from the never never
TTITLE1=When they muster on the golden plain
TTITLE2=The Rodeo Dance
TTITLE3=Harry the Breaker
TTITLE4=Sat'day in the saddle
TTITLE5=Springtime on the range
TTITLE6=Once when I was mustering
TTITLE7=The saddle is his home
TTITLE8=My pony whipstick
TTITLE9=Saddle boy
TTITLE10=Just saddle old darky
TTITLE11=Mareeba's Rodeo Song
EXTD=YEAR: 1963
EXTT0=
EXTT1=
EXTT2=
EXTT3=
EXTT4=
EXTT5=
EXTT6=
EXTT7=
EXTT8=
EXTT9=
EXTT10=
EXTT11=
PLAYORDER=
